<svg width="32" height="32" viewBox="0 0 32 32" fill="none" xmlns="http://www.w3.org/2000/svg">
<path fill-rule="evenodd" clip-rule="evenodd" d="M15.2827 6.44978C16.0224 6.5481 16.8702 6.80482 17.5346 7.35853C20.5883 9.90329 21.6324 10.9514 24.668 14.999C25.018 15.4656 25.2722 16.1441 25.4133 16.7704C25.552 17.3855 25.6233 18.1329 25.4505 18.7315C24.2668 22.8336 20.485 25.835 16 25.835C10.5683 25.835 6.16504 21.4318 6.16504 16C6.16504 11.515 9.16644 7.73325 13.2685 6.54954C13.799 6.39647 14.5436 6.35153 15.2827 6.44978ZM14.335 8.07081C14.553 8.06219 14.8017 8.07052 15.0627 8.10522C15.6246 8.17991 16.1299 8.3618 16.4655 8.64145C19.4117 11.0967 20.3677 12.0485 23.332 16.001C23.4853 16.2053 23.6698 16.6299 23.7842 17.1376C23.8274 17.3293 23.8548 17.5071 23.8693 17.665H22.5C17.9906 17.665 14.335 14.0094 14.335 9.49998V8.07081ZM12.665 8.5447C9.81773 9.82033 7.83504 12.6795 7.83504 16C7.83504 20.5094 11.4906 24.165 16 24.165C19.3206 24.165 22.1798 22.1823 23.4554 19.335H22.5C17.0683 19.335 12.665 14.9317 12.665 9.49998V8.5447Z" fill="#808080"/>
</svg>
