<svg width="32" height="32" viewBox="0 0 32 32" fill="none" xmlns="http://www.w3.org/2000/svg">
<path fill-rule="evenodd" clip-rule="evenodd" d="M10.67 8.50004C10.67 5.5536 13.0586 3.16504 16.005 3.16504C18.9515 3.16504 21.34 5.5536 21.34 8.50004V14.5C21.34 17.4465 18.9515 19.835 16.005 19.835C13.0586 19.835 10.67 17.4465 10.67 14.5V8.50004ZM16.005 4.83504C13.9809 4.83504 12.34 6.47592 12.34 8.50004V14.5C12.34 16.5242 13.9809 18.165 16.005 18.165C18.0291 18.165 19.67 16.5242 19.67 14.5V8.50004C19.67 6.47592 18.0291 4.83504 16.005 4.83504Z" fill="#808080"/>
<path d="M7.50501 13.665C7.96617 13.665 8.34001 14.0389 8.34001 14.5C8.34001 18.7333 11.7718 22.165 16.005 22.165C20.2383 22.165 23.67 18.7333 23.67 14.5C23.67 14.0389 24.0439 13.665 24.505 13.665C24.9662 13.665 25.34 14.0389 25.34 14.5C25.34 19.3742 21.6044 23.3759 16.84 23.7982V27.5C16.84 27.9612 16.4662 28.335 16.005 28.335C15.5439 28.335 15.17 27.9612 15.17 27.5V23.7982C10.4056 23.3759 6.67001 19.3742 6.67001 14.5C6.67001 14.0389 7.04386 13.665 7.50501 13.665Z" fill="#808080"/>
</svg>
