<svg width="22" height="24" viewBox="0 0 22 24" fill="none" xmlns="http://www.w3.org/2000/svg">
<path d="M10.6566 1.8931C13.1807 -0.631032 17.2731 -0.631034 19.7973 1.8931C22.3214 4.41723 22.3214 8.50966 19.7973 11.0338L12.2538 18.5773C10.5834 20.2478 7.87505 20.2478 6.20461 18.5773C4.53417 16.9069 4.53417 14.1986 6.20461 12.5281L11.9706 6.76215C12.3611 6.37163 12.9943 6.37163 13.3848 6.76215C13.7753 7.15268 13.7753 7.78584 13.3848 8.17637L7.61882 13.9423C6.72943 14.8317 6.72943 16.2737 7.61882 17.1631C8.50822 18.0525 9.9502 18.0525 10.8396 17.1631L18.3831 9.61958C20.1262 7.87649 20.1262 5.0504 18.3831 3.30731C16.64 1.56423 13.8139 1.56423 12.0708 3.30731L4.38921 10.9889C1.87026 13.5078 1.87027 17.5919 4.38921 20.1108C6.90815 22.6297 10.9922 22.6297 13.5111 20.1108L19.7879 13.834C20.1784 13.4435 20.8116 13.4435 21.2021 13.834C21.5926 14.2245 21.5926 14.8577 21.2021 15.2482L14.9253 21.525C11.6253 24.825 6.27498 24.825 2.97499 21.525C-0.324997 18.225 -0.324998 12.8747 2.97499 9.57469L10.6566 1.8931Z" fill="#808080"/>
</svg>
